<?xml version="1.0" standalone="no"?>
<!DOCTYPE svg PUBLIC "-//W3C//DTD SVG 20010904//EN"
 "http://www.w3.org/TR/2001/REC-SVG-20010904/DTD/svg10.dtd">
<svg version="1.0" xmlns="http://www.w3.org/2000/svg"
 width="1428.000000pt" height="1428.000000pt" viewBox="0 0 1428.000000 1428.000000"
 preserveAspectRatio="xMidYMid meet">
<metadata>
Created by potrace 1.11, written by Peter Selinger 2001-2013
</metadata>
<g transform="translate(0.000000,1428.000000) scale(0.100000,-0.100000)"
fill="#000000" stroke="none">
<path d="M5588 12112 c-31 -4 -33 -11 -43 -142 -10 -127 -16 -194 -20 -207 -4
-13 112 -17 132 -5 7 4 26 41 44 82 17 41 36 78 42 82 6 3 50 6 99 6 l88 0 0
-76 c3 -408 -1 -757 -7 -762 -5 -4 -42 -12 -83 -19 -124 -20 -113 -8 -95 -121
2 -14 4 -28 4 -32 1 -5 133 -8 295 -8 332 0 300 -9 311 86 7 60 11 57 -97 74
-42 7 -81 16 -88 20 -11 7 -13 97 -14 423 l-1 415 98 0 98 1 40 -88 40 -87 57
1 c56 1 86 10 78 23 -2 4 -7 41 -11 82 -4 41 -8 82 -10 90 -1 8 -6 47 -10 85
-4 39 -8 72 -10 73 -4 5 -901 8 -937 4z"/>
<path d="M6683 12112 l-32 -3 0 -80 c0 -53 4 -79 12 -79 23 -1 92 -12 96 -16
3 -2 5 -758 2 -831 -1 -13 -4 -22 -8 -21 -5 1 -30 -2 -56 -6 l-49 -7 6 -37 c3
-20 8 -46 10 -57 3 -11 5 -30 5 -42 l1 -23 215 0 215 0 1 23 c6 128 4 132 -59
141 l-49 6 -1 175 c-1 130 2 175 11 176 7 1 94 2 195 3 l182 1 -2 -175 -3
-175 -48 -9 c-47 -8 -49 -10 -44 -36 3 -15 9 -50 13 -79 l7 -51 217 0 217 0 2
75 c2 70 0 75 -21 79 -13 3 -41 9 -63 13 l-40 9 -1 421 -2 421 57 8 c31 4 59
7 64 6 9 -3 9 3 -4 93 l-11 75 -47 1 c-57 0 -315 0 -358 0 l-32 -1 1 -80 c0
-66 3 -80 17 -81 9 -1 21 -2 26 -4 6 -1 20 -3 33 -3 22 -2 22 -3 22 -162 l0
-160 -194 0 -194 0 0 154 -1 155 56 7 55 7 -7 56 c-3 31 -8 66 -9 79 -2 12 -6
25 -8 28 -6 6 -345 11 -395 6z"/>
<path d="M7887 12112 c-14 -3 -17 -17 -17 -83 l0 -79 40 -1 c22 -1 46 -2 53
-3 9 -1 12 -94 12 -431 l0 -430 -53 -9 -54 -9 6 -46 c4 -25 8 -55 10 -66 3
-11 5 -26 5 -32 1 -10 86 -13 391 -13 364 0 390 1 391 18 0 9 2 24 3 32 3 14
6 48 22 215 3 33 7 65 9 72 5 16 -12 20 -80 19 l-60 -1 -31 -85 -32 -85 -143
0 -144 0 0 170 0 170 130 0 130 0 0 90 0 90 -132 3 -133 3 0 154 0 154 139 -1
139 0 36 -87 37 -86 67 0 67 0 -1 30 c-2 61 -25 318 -29 323 -4 4 -757 8 -778
4z"/>
<path d="M10440 10458 c-390 -45 -663 -262 -810 -644 -15 -41 -26 -74 -24 -74
3 0 1 -8 -5 -17 -5 -10 -18 -63 -29 -118 -57 -282 -43 -640 34 -889 107 -341
339 -586 639 -675 69 -20 90 -25 170 -38 66 -11 275 -7 352 6 40 7 75 12 78
12 15 -2 178 65 230 94 224 126 400 373 475 670 12 44 23 96 26 115 2 19 7 44
9 55 21 100 21 437 0 560 -43 247 -111 421 -223 571 -188 253 -419 367 -762
377 -52 2 -124 0 -160 -5z m258 -388 c169 -56 317 -251 376 -495 44 -184 52
-416 21 -600 -40 -235 -161 -452 -300 -540 -79 -50 -133 -64 -232 -61 -97 3
-108 5 -171 34 -183 83 -330 348 -360 652 -35 362 50 703 222 888 112 121 295
171 444 122z"/>
<path d="M1148 10454 c-2 -1 -23 -5 -48 -9 -243 -35 -457 -144 -639 -326 -198
-198 -318 -461 -346 -759 -5 -51 -6 -302 -1 -325 2 -11 7 -45 11 -75 35 -284
193 -562 414 -728 307 -231 751 -300 1136 -176 101 33 198 83 262 137 75 63
75 61 32 152 -21 44 -54 115 -74 158 l-35 77 -23 -21 c-34 -33 -146 -103 -205
-128 -79 -33 -217 -61 -304 -61 -278 -1 -499 134 -630 385 -36 71 -81 201 -91
265 -31 194 -27 329 13 483 78 307 305 528 585 572 22 3 85 6 140 6 85 0 102
-3 115 -19 9 -10 56 -108 105 -218 49 -109 90 -201 92 -203 2 -3 56 -4 121 -4
187 2 173 -1 168 31 -4 24 -8 66 -22 222 -2 25 -6 65 -9 90 -2 25 -7 72 -10
105 -3 33 -8 78 -10 100 -2 22 -7 72 -10 110 -4 39 -9 73 -13 76 -14 12 -206
55 -292 65 -25 3 -58 8 -75 11 -31 5 -352 12 -357 7z"/>
<path d="M2960 10435 c-4 -11 -162 -484 -351 -1052 l-344 -1032 -97 -32 c-95
-30 -98 -32 -93 -58 3 -14 12 -71 20 -126 9 -55 17 -106 20 -112 3 -10 98 -13
427 -13 l424 0 -1 129 c0 127 -3 143 -28 147 -7 1 -55 10 -107 19 -52 9 -108
19 -125 22 -16 2 -34 8 -38 13 -5 4 20 104 56 221 l65 214 346 3 345 2 26 -87
c15 -49 38 -126 51 -173 14 -47 31 -104 39 -126 l13 -42 -67 -18 c-36 -10 -68
-19 -71 -19 -26 -4 -118 -29 -130 -36 -12 -6 -15 -33 -15 -138 l0 -131 462 0
463 0 1 23 c0 12 2 31 5 42 6 33 17 137 18 179 1 39 1 39 -59 60 -91 32 -94
36 -125 127 -16 46 -117 345 -225 664 -109 319 -208 612 -220 650 -69 211
-226 669 -234 683 -8 15 -37 17 -226 17 -209 1 -217 0 -225 -20z m209 -625
c13 -52 32 -133 43 -180 10 -47 28 -121 38 -165 57 -238 70 -299 64 -304 -5
-5 -414 -9 -414 -4 0 1 40 133 89 295 49 161 101 335 117 386 16 54 30 88 34
80 4 -7 17 -56 29 -108z"/>
<path d="M4439 10440 c-3 -53 -1 -311 2 -315 3 -2 34 -7 69 -11 36 -4 85 -9
110 -13 l45 -6 0 -863 c0 -759 -2 -863 -15 -867 -15 -4 -218 -45 -226 -45 -5
0 3 -55 17 -118 5 -23 12 -59 15 -80 3 -20 9 -53 13 -72 l7 -35 370 -3 370 -2
0 157 -1 157 -82 26 c-46 15 -86 29 -89 33 -8 7 -9 1575 -2 1582 3 3 29 -57
58 -132 28 -76 68 -178 87 -228 19 -49 73 -189 120 -310 46 -121 104 -269 127
-330 24 -60 64 -166 90 -235 26 -69 52 -134 57 -145 4 -11 36 -92 70 -180 34
-88 82 -213 107 -277 l45 -118 359 0 c279 0 358 3 359 13 0 6 1 472 1 1035 1
562 2 1022 4 1022 1 0 37 6 80 14 44 8 96 17 117 21 32 5 36 9 32 28 -2 12
-14 85 -26 162 -12 77 -25 142 -30 145 -4 3 -175 5 -381 5 l-373 0 -2 -162
c-1 -121 1 -163 10 -164 7 0 19 -2 28 -4 8 -1 42 -6 75 -9 32 -4 66 -9 75 -12
15 -4 17 -77 17 -870 0 -476 -1 -864 -3 -862 -1 1 -14 32 -28 68 -14 36 -43
112 -66 170 -22 58 -111 290 -197 515 -86 226 -166 437 -179 470 -13 33 -82
215 -155 405 -169 443 -171 450 -179 451 -3 1 -207 2 -453 3 -392 1 -448 -1
-449 -14z"/>
<path d="M7009 10410 c0 -25 -1 -100 -2 -167 l-2 -122 65 -6 c36 -4 74 -8 85
-10 11 -2 34 -4 50 -4 l30 -1 -1 -862 c-1 -475 -2 -866 -3 -869 0 -3 -47 -13
-103 -23 -57 -10 -111 -20 -121 -22 -19 -6 -19 -8 8 -144 8 -41 18 -93 21
-115 3 -22 8 -43 11 -47 2 -5 170 -8 372 -8 l367 0 0 157 -1 156 -83 27 c-45
15 -85 30 -88 33 -7 7 -10 1587 -3 1587 4 0 14 -21 23 -47 10 -27 22 -57 27
-68 4 -11 54 -139 109 -285 56 -146 105 -274 110 -285 5 -11 19 -45 30 -75 11
-30 24 -64 29 -75 5 -11 14 -36 21 -55 7 -19 16 -44 21 -55 4 -11 44 -112 87
-225 44 -113 130 -337 192 -497 l113 -293 359 0 358 0 1 38 c0 20 1 486 1
1034 l0 997 42 7 c22 4 43 8 46 9 5 1 64 12 120 22 13 2 26 5 27 7 1 1 -10 76
-25 166 l-28 165 -379 0 -380 0 -2 -163 c-2 -122 0 -162 10 -163 6 0 26 -3 42
-6 17 -2 57 -8 90 -11 l60 -7 1 -868 c1 -763 -1 -865 -13 -835 -8 18 -33 80
-55 138 -22 58 -43 114 -48 125 -5 11 -48 124 -96 250 -47 127 -92 244 -99
260 -12 26 -142 369 -391 1025 -41 107 -80 208 -88 225 l-13 30 -452 0 -451 0
-1 -45z"/>
<path d="M11849 10435 c-2 -60 0 -307 3 -310 3 -3 52 -10 153 -21 33 -3 62 -8
65 -9 7 -4 6 -1722 0 -1728 -3 -2 -56 -14 -119 -25 -62 -12 -115 -23 -117 -25
-2 -2 9 -71 24 -155 l27 -152 371 0 370 0 0 157 -1 157 -90 29 -90 28 0 794
c0 437 3 795 7 795 3 0 12 -17 18 -37 7 -21 18 -51 26 -68 12 -28 179 -458
229 -590 12 -33 104 -271 204 -530 100 -258 205 -530 233 -602 l51 -133 361 0
361 0 -1 1034 -2 1035 42 7 c22 4 43 8 46 9 3 1 28 5 55 10 28 5 53 10 58 11
4 1 14 2 22 3 11 1 14 9 10 29 -3 15 -8 45 -11 67 -3 22 -13 85 -22 140 l-17
100 -380 0 -380 0 -2 -163 c-2 -137 0 -162 12 -163 8 -1 18 -2 23 -3 8 -2 141
-19 157 -20 7 -1 10 -298 11 -869 1 -761 -1 -864 -13 -835 -8 18 -80 204 -160
413 -80 209 -160 418 -178 465 -32 81 -75 195 -284 745 -51 132 -109 283 -129
335 l-37 95 -453 0 c-446 0 -452 0 -453 -20z"/>
<path d="M10047 6994 c-9 -8 -869 -29 -1097 -27 -257 3 -467 2 -515 -3 -27 -2
-203 -6 -390 -9 -187 -3 -383 -7 -435 -10 -52 -2 -149 -4 -215 -3 -747 3
-1199 -3 -1225 -17 -58 -30 -129 -135 -130 -191 0 -34 -23 -54 -67 -59 -64 -6
-80 -20 -114 -93 l-30 -67 23 -18 c22 -18 23 -18 30 0 3 10 9 35 13 56 9 54
35 77 88 76 23 -1 33 -3 22 -6 -11 -2 -29 -6 -41 -8 -29 -6 -63 -70 -46 -87 9
-9 20 -4 51 26 30 29 40 34 44 22 15 -38 -15 -89 -58 -100 -14 -4 -29 -15 -35
-26 -10 -19 -7 -20 37 -20 26 0 53 -4 59 -8 5 -4 16 -33 23 -65 22 -99 117
-216 193 -237 21 -6 57 -8 80 -6 24 3 68 8 98 12 30 3 82 9 115 14 63 8 115
-3 115 -24 0 -29 -29 -51 -67 -52 -24 0 -68 -15 -118 -41 -44 -22 -144 -69
-223 -103 -127 -56 -143 -66 -138 -84 20 -80 35 -154 36 -172 0 -18 -14 -27
-92 -53 -51 -18 -100 -34 -108 -36 -23 -5 -443 -155 -465 -165 -11 -6 -51 -21
-90 -34 -38 -13 -114 -39 -168 -58 -54 -19 -109 -33 -121 -31 -16 3 -30 22
-50 69 -16 35 -30 64 -33 64 -5 0 -246 -92 -252 -97 -2 -1 10 -34 26 -72 l31
-69 -107 -32 c-58 -18 -187 -63 -286 -100 -99 -37 -288 -103 -420 -145 -304
-99 -295 -94 -295 -149 l0 -43 -88 -23 c-48 -13 -102 -27 -119 -32 -18 -5 -33
-15 -33 -23 0 -16 15 -19 65 -16 132 10 233 4 285 -16 148 -58 195 -74 231
-76 22 -1 39 -3 39 -5 0 -1 -11 -7 -25 -12 -32 -12 -32 -25 1 -28 14 -1 39
-13 56 -27 36 -30 106 -34 169 -8 40 16 41 16 18 28 l-22 13 21 6 c24 8 28 26
10 44 -9 9 -5 12 17 12 17 0 55 3 85 5 l55 5 -39 -13 c-52 -16 -59 -37 -13
-37 27 0 37 -5 42 -20 3 -11 9 -20 13 -21 4 0 28 -1 55 -2 42 -2 47 0 45 17
-3 17 15 23 162 54 174 36 198 45 179 68 -11 13 -98 13 -169 -1 -13 -3 -40 -7
-60 -10 -20 -3 -47 -8 -60 -10 -86 -17 -103 -18 -95 -4 17 27 51 45 210 106
142 54 161 59 170 45 17 -27 63 -72 74 -72 5 0 13 21 16 48 11 87 9 85 182
142 87 28 194 67 238 85 44 19 134 55 199 80 65 26 130 54 144 63 24 15 26 15
48 -12 13 -15 24 -33 24 -40 0 -8 12 -21 26 -31 30 -20 43 -9 45 35 0 14 1 43
2 64 l2 39 120 42 c66 24 127 45 135 48 8 3 77 27 153 53 115 40 136 51 132
65 -4 12 2 22 15 29 12 6 23 10 24 8 2 -2 11 -64 20 -140 33 -262 45 -293 176
-478 140 -196 341 -368 563 -480 l106 -54 -162 -52 c-151 -50 -195 -73 -180
-96 3 -6 24 -7 47 -4 22 3 61 9 86 12 64 9 86 23 36 24 -22 0 -36 4 -30 8 8 8
102 39 142 47 9 2 51 11 92 20 126 28 197 23 250 -17 26 -19 51 -24 120 -27
l35 -2 -23 -19 c-25 -21 -22 -41 6 -36 9 2 49 9 87 15 107 18 115 21 115 31 0
6 -3 9 -7 9 -5 -1 -21 0 -38 1 l-30 2 35 8 c97 22 107 22 113 -1 5 -19 11 -21
49 -15 24 3 66 8 93 11 28 3 66 8 85 10 48 6 17 -11 -34 -19 -66 -11 -84 -17
-90 -33 -15 -39 22 -43 86 -9 24 13 82 31 129 40 96 20 126 39 95 61 -11 8
-29 13 -40 10 -36 -8 -88 -14 -171 -20 -44 -4 -97 -8 -117 -10 -21 -2 -38 -2
-38 0 0 2 23 11 51 20 55 19 320 135 406 179 58 29 78 32 86 13 4 -10 26 -12
88 -9 92 4 123 17 93 39 -9 7 -27 11 -38 8 -12 -2 -43 -7 -70 -10 l-49 -7 18
29 c22 33 51 61 102 99 66 49 84 67 72 75 -8 4 3 27 31 69 41 60 123 199 147
250 15 31 59 180 69 235 4 22 9 49 11 60 13 60 9 309 -7 415 -27 182 -72 330
-114 380 -17 20 -48 78 -85 160 -16 36 -45 87 -64 112 -20 26 -33 49 -29 51 4
3 48 8 97 12 50 3 110 8 135 10 25 2 79 6 120 9 41 4 95 8 120 11 25 3 74 7
109 10 147 12 286 25 321 30 14 2 52 6 85 10 33 4 69 8 80 10 133 19 221 28
329 31 80 3 133 9 137 15 6 11 23 152 23 194 -1 79 -38 251 -60 274 -12 13
-16 12 -32 -2 -20 -18 -34 -14 -26 8 9 22 -18 30 -109 30 -48 1 -89 0 -90 -1z
m149 -56 c3 -4 -2 -9 -10 -9 -9 -1 -20 -3 -26 -4 -5 -1 -19 -3 -30 -4 -18 -1
-20 -8 -20 -66 0 -75 11 -86 61 -61 36 18 49 20 49 7 0 -4 -20 -16 -45 -25
-25 -10 -45 -20 -45 -22 0 -3 12 -15 26 -27 l26 -23 -41 -19 c-23 -10 -43 -16
-45 -14 -1 2 -12 51 -23 108 -16 80 -18 110 -10 129 9 18 8 25 -4 33 -9 6 10
9 59 8 40 -1 75 -6 78 -11z m100 -135 c4 -33 2 -53 -5 -57 -7 -5 -11 2 -12 16
0 13 -2 37 -5 53 -2 17 -6 46 -8 65 l-4 35 13 -31 c8 -17 17 -54 21 -81z
m-1286 56 c0 -10 20 -38 45 -62 25 -25 45 -54 45 -66 0 -12 6 -21 16 -21 8 0
13 3 11 8 -3 4 -8 36 -12 71 -5 45 -4 61 4 57 6 -4 11 -13 11 -21 0 -8 19 -25
43 -39 l42 -26 6 23 c6 21 6 21 13 -4 12 -44 96 -50 96 -8 0 26 25 24 45 -3 8
-13 21 -23 27 -23 8 0 12 -27 13 -84 1 -80 0 -83 -12 -52 -14 33 -33 34 -33 2
0 -10 -7 -24 -15 -31 -12 -10 -20 -9 -40 4 -14 9 -25 22 -26 29 -3 58 -26 84
-59 67 l-22 -12 21 -14 c26 -19 27 -34 2 -34 -16 0 -17 -5 -10 -42 10 -55 11
-98 2 -98 -5 0 -8 13 -9 30 -1 18 -17 51 -43 84 -22 30 -41 60 -41 66 0 7 -6
10 -12 7 -8 -2 -12 -20 -11 -48 2 -34 1 -39 -6 -23 -5 12 -16 24 -25 27 -21 8
-32 -33 -17 -61 6 -12 11 -24 11 -29 -1 -4 -8 4 -16 20 -13 24 -17 26 -37 15
-25 -14 -57 -12 -73 5 -7 7 -19 54 -29 105 -9 52 -19 100 -22 108 -4 10 0 12
12 8 14 -6 15 -2 10 30 -4 20 -5 36 -3 36 3 0 20 -23 38 -51 28 -43 34 -49 42
-34 6 10 6 37 0 71 -7 45 -7 52 5 43 7 -6 13 -20 13 -30z m-1376 15 c17 -17
22 -69 7 -79 -9 -5 -31 53 -31 83 0 16 5 15 24 -4z m865 -30 c14 -32 25 -44
35 -41 16 6 23 -10 75 -168 17 -49 28 -91 26 -93 -2 -3 -16 -1 -30 2 -22 6
-26 12 -25 39 3 50 1 57 -15 57 -9 0 -20 -12 -25 -26 l-10 -26 -34 30 c-51 44
-130 79 -246 108 -58 15 -106 27 -107 28 -1 1 3 21 9 44 10 41 11 42 29 26 21
-19 21 -19 37 11 11 19 11 19 12 -2 0 -13 9 -32 21 -44 19 -19 23 -20 37 -6
14 14 13 18 -2 42 -13 20 -15 30 -7 38 7 7 11 8 11 1 0 -27 97 -103 112 -88 3
2 8 -14 12 -38 9 -55 22 -71 47 -57 18 9 18 12 4 38 -8 16 -12 39 -10 52 2 13
6 45 10 72 3 26 8 47 10 47 2 0 13 -21 24 -46z m138 -18 c27 -56 43 -64 43
-20 l0 24 28 -30 c29 -33 58 -39 120 -26 20 5 32 4 33 -3 1 -6 2 -14 3 -18 1
-5 6 -30 11 -58 4 -27 9 -54 11 -60 8 -39 15 -105 11 -105 -4 0 -18 20 -33 45
-27 48 -34 51 -64 35 -17 -9 -20 -6 -26 27 -4 21 -14 46 -22 56 -16 18 -16 18
-23 0 -3 -10 -3 -31 2 -48 4 -16 10 -43 14 -60 l7 -30 -24 23 c-14 12 -32 22
-41 22 -19 0 -57 55 -57 82 0 10 -9 34 -19 55 -11 21 -20 52 -21 68 -6 92 9
98 47 21z m1107 1 c3 -11 15 -21 26 -24 11 -3 23 -17 26 -32 15 -70 22 -77 23
-22 1 74 16 53 23 -32 1 -15 10 -35 19 -43 16 -14 19 -13 33 18 20 43 25 76
16 110 l-8 26 61 -20 c34 -12 63 -22 64 -22 1 -1 5 -34 8 -74 4 -48 3 -72 -4
-72 -6 0 -11 3 -11 8 0 4 -9 18 -20 32 -17 21 -21 23 -30 10 -5 -8 -10 -34
-10 -57 0 -31 -5 -45 -19 -53 -31 -16 -39 -12 -51 25 -11 34 -18 39 -52 36
-10 -1 -26 2 -36 8 -16 8 -21 6 -30 -14 -9 -19 -8 -27 4 -40 9 -8 11 -15 6
-15 -5 0 -17 9 -27 20 -26 29 -44 25 -40 -7 1 -16 -2 -31 -8 -35 -17 -10 -57
14 -58 36 -1 19 -4 41 -7 74 -1 6 -10 12 -19 12 -15 0 -18 -10 -19 -57 0 -75
-6 -113 -16 -107 -5 3 -6 9 -3 13 2 5 -4 16 -15 26 -20 18 -22 18 -59 -2 l-39
-21 -12 75 c-7 42 -14 107 -14 147 -1 68 0 71 24 74 19 2 29 -5 43 -29 17 -31
19 -32 68 -26 44 5 54 3 74 -17 20 -20 25 -21 48 -9 26 13 26 13 16 -19 -5
-18 -9 -34 -9 -35 0 -7 40 -2 41 5 0 4 2 15 4 25 2 10 -5 44 -16 74 -19 57
-26 108 -9 68 5 -11 11 -28 14 -38z m-3608 -214 c0 -168 4 -235 17 -292 18
-80 16 -96 -9 -65 -32 40 -55 104 -53 148 2 25 -3 51 -10 60 -21 25 -15 184
11 266 14 43 37 100 41 100 2 0 4 -98 3 -217z m1063 180 c6 -21 17 -59 25 -85
7 -26 12 -49 9 -51 -2 -3 -42 -24 -89 -47 -47 -24 -116 -69 -153 -101 l-68
-57 -22 39 c-25 44 -46 52 -38 13 4 -21 -2 -30 -36 -51 -32 -20 -41 -22 -48
-11 -5 7 -9 16 -9 19 0 14 -32 18 -50 7 -16 -11 -24 -8 -49 16 l-31 29 -15
-34 c-14 -33 -15 -30 -9 56 4 50 8 97 10 105 1 8 3 31 4 50 1 34 2 34 11 10 6
-14 8 -39 4 -57 -7 -40 8 -50 25 -17 8 15 19 23 28 19 8 -3 21 0 29 7 12 10
18 8 33 -11 22 -30 26 -21 29 54 2 33 4 61 5 63 2 1 14 -19 28 -45 29 -53 29
-100 2 -120 -17 -12 -17 -14 2 -28 17 -12 20 -12 32 2 17 23 14 88 -7 153 -10
30 -17 57 -15 59 8 8 47 -35 60 -66 8 -19 14 -68 14 -115 l0 -82 21 21 c17 17
22 36 25 94 3 61 7 77 29 99 14 14 25 35 26 46 1 10 7 -6 15 -36 7 -30 11 -63
8 -72 -3 -10 -2 -18 3 -18 4 0 18 -3 31 -6 20 -6 22 -3 22 32 0 22 -6 59 -14
84 -13 44 -13 45 9 46 20 2 24 -6 35 -56 26 -121 46 -108 49 33 1 56 16 61 30
10z m306 -39 c-55 -17 -103 -29 -107 -27 -5 2 -8 18 -8 34 0 33 15 42 95 56
42 7 56 5 85 -12 l34 -20 -99 -31z m226 62 c18 16 19 16 19 -4 0 -18 -6 -22
-30 -22 -25 0 -30 4 -30 23 1 20 1 21 11 4 10 -18 12 -18 30 -1z m-404 -46
c12 -28 23 -54 23 -58 0 -4 -18 -15 -41 -25 l-42 -17 7 61 c12 105 21 112 53
39z m753 20 c0 -21 -23 -25 -70 -10 l-25 7 25 11 c42 18 70 15 70 -8z m-1523
-56 c8 -27 16 -110 20 -185 l6 -136 -26 0 c-23 0 -26 4 -32 56 -4 32 -10 63
-15 71 -13 21 -31 -59 -24 -107 3 -23 1 -43 -4 -47 -5 -3 -10 16 -11 42 -2 73
-8 93 -38 124 -25 26 -28 27 -35 11 -3 -10 -7 -39 -7 -65 -1 -27 -5 -48 -9
-48 -14 0 -29 79 -31 168 -2 86 -2 87 27 104 16 10 38 15 50 11 18 -4 22 -13
22 -49 0 -33 5 -46 20 -54 22 -12 25 -8 33 40 3 18 5 14 6 -12 1 -40 10 -51
30 -39 10 7 10 24 -1 90 -16 91 -3 107 19 25z m2851 31 c-3 -3 -9 2 -12 12 -6
14 -5 15 5 6 7 -7 10 -15 7 -18z m-3104 -143 c0 -48 6 -123 14 -167 21 -118
21 -120 -8 -120 -19 0 -25 5 -25 22 0 31 -20 49 -38 35 -9 -8 -13 -28 -11 -59
l4 -48 -21 45 c-46 101 -59 198 -47 358 3 32 17 5 33 -60 22 -90 24 -94 39
-71 7 10 12 43 11 77 -3 82 2 97 28 85 20 -9 22 -17 21 -97z m1486 98 c12 -8
12 -10 -5 -11 -11 0 -44 -4 -72 -8 -29 -4 -53 -6 -53 -5 0 2 12 10 28 18 31
17 80 20 102 6z m-247 -44 c-23 -8 -59 -16 -80 -19 -31 -5 -28 -3 17 13 30 10
66 18 80 18 18 1 13 -3 -17 -12z m2655 -43 c-6 -7 -16 -13 -22 -13 -7 0 -22
-9 -34 -21 l-22 -20 -27 20 -26 21 34 14 c70 28 94 33 101 22 4 -6 2 -16 -4
-23z m-2421 -7 l38 -35 -50 -1 c-54 -2 -64 -3 -134 -20 -76 -18 -85 -18 -129
-10 -33 6 -62 2 -121 -15 -93 -27 -111 -36 -171 -84 -62 -50 -65 -53 -84 -88
-8 -17 -27 -40 -40 -51 -18 -13 -23 -25 -19 -40 7 -28 -64 -159 -125 -232 -65
-76 -71 -82 -80 -76 -5 3 -25 -4 -45 -14 -50 -27 -51 -26 -24 18 13 20 29 52
36 69 7 18 44 63 81 100 56 56 67 72 60 88 -7 18 -15 12 -76 -53 -38 -40 -73
-72 -78 -72 -6 0 4 15 21 33 17 17 55 64 85 104 69 90 96 120 183 205 58 57
71 65 73 48 5 -29 26 -25 79 16 75 57 166 93 318 122 145 29 159 28 202 -12z
m153 10 c0 -19 24 -27 59 -20 16 4 46 0 68 -7 21 -7 51 -14 66 -15 31 -4 64
-20 86 -41 9 -10 25 -13 47 -8 42 7 125 -16 176 -50 57 -38 46 -41 -18 -5 -36
20 -60 28 -66 22 -6 -6 24 -31 82 -68 67 -43 89 -62 84 -74 -18 -42 -15 -59
15 -90 37 -39 92 -59 142 -53 32 5 39 2 54 -21 19 -28 24 -70 12 -96 -4 -9 -1
-24 6 -34 13 -17 15 -16 32 19 l18 38 23 -39 c17 -27 22 -48 18 -69 -3 -19 1
-38 10 -50 15 -20 15 -20 29 -1 17 23 57 31 69 14 12 -20 9 -36 -7 -40 -13 -3
-12 -9 5 -40 l20 -38 -40 0 c-34 0 -40 -3 -40 -21 0 -18 5 -21 29 -17 23 3 32
-1 44 -22 18 -30 7 -60 -22 -60 -32 0 -31 -27 3 -72 46 -60 65 -100 76 -158
12 -62 -3 -108 -38 -121 l-25 -10 22 -23 c41 -44 50 -90 32 -159 l-16 -61 -3
44 c-2 24 -12 55 -23 68 -10 14 -19 30 -19 37 0 16 -27 27 -35 14 -4 -5 1 -29
10 -53 13 -33 16 -69 13 -152 l-3 -109 -32 2 c-35 3 -32 10 -49 -103 -2 -17
-18 -52 -35 -79 -17 -27 -41 -76 -52 -108 -25 -69 -49 -91 -69 -64 -13 17 -14
17 -33 0 -133 -123 -175 -158 -218 -180 -71 -36 -126 -54 -172 -58 -22 -2 -81
-12 -130 -23 -127 -29 -155 -33 -340 -47 -95 -8 -115 -19 -84 -46 15 -13 38
-19 68 -19 25 -1 86 -1 136 -1 49 0 93 -3 98 -6 15 -9 -53 -33 -110 -40 -45
-4 -53 -3 -53 11 0 12 -11 16 -47 17 -27 0 -55 2 -63 3 -8 2 -45 7 -83 10 -37
4 -65 11 -62 16 3 4 13 7 23 6 9 -2 25 6 35 17 20 24 20 23 6 48 -9 17 -5 22
25 34 22 9 51 13 78 9 32 -4 60 1 108 19 48 18 82 24 130 22 41 -1 83 5 115
16 28 10 84 27 125 39 41 11 87 26 102 32 24 9 26 12 12 25 -12 12 -27 14 -67
9 -28 -4 -48 -4 -44 0 16 16 143 42 178 37 36 -5 37 -4 54 41 10 25 20 46 24
46 3 0 28 -7 55 -15 27 -8 55 -15 63 -15 18 0 16 20 -4 35 -15 11 -11 19 38
76 66 78 64 77 96 71 25 -5 26 -4 10 18 -26 37 -1 205 37 251 21 24 24 36 20
76 -3 29 0 64 10 90 8 22 12 43 10 46 -3 2 9 7 26 10 36 8 38 19 8 32 -22 10
-23 15 -23 145 l0 135 -62 145 c-109 259 -119 277 -152 295 -36 18 -110 114
-122 159 -7 25 -21 38 -71 64 -72 37 -171 92 -178 99 -2 2 2 8 9 12 7 5 11 17
9 27 -2 11 3 24 11 30 18 14 7 46 -13 38 -8 -3 -18 -14 -21 -25 -8 -25 -23
-24 -65 5 -41 27 -87 43 -150 51 -25 3 -76 13 -113 21 -61 15 -67 18 -62 38 4
11 9 29 11 39 6 21 54 24 54 3z m325 -35 c22 -11 33 -20 25 -20 -8 0 -33 8
-55 18 -22 11 -33 20 -25 20 8 0 33 -8 55 -18z m-965 -9 c0 -5 -16 -16 -35
-25 -44 -21 -46 -13 -2 13 37 23 37 23 37 12z m2876 -45 c7 -6 -11 -9 -71 -10
-47 0 -75 4 -75 11 0 10 136 9 146 -1z m-2781 -63 c-27 -14 -72 -38 -100 -53
-27 -15 -59 -31 -69 -35 -19 -7 -20 -6 -1 14 27 29 76 58 137 80 75 27 92 24
33 -6z m115 17 c0 -5 -9 -11 -20 -14 -13 -3 -20 0 -20 9 0 8 9 14 20 14 11 0
20 -4 20 -9z m420 -73 c74 -21 141 -40 148 -43 8 -3 -26 -81 -106 -242 -66
-131 -122 -249 -125 -263 -13 -48 -23 -56 -46 -36 -21 19 -111 158 -111 170 0
4 27 6 60 5 34 -1 66 3 72 9 17 17 1 42 -28 42 l-27 0 27 21 c31 24 33 35 7
42 -17 4 -49 -8 -61 -23 -3 -3 -21 -18 -41 -33 l-36 -27 -86 155 c-48 86 -89
166 -93 178 -7 31 12 46 89 68 100 29 198 23 357 -23z m744 -42 c34 -34 79
-86 100 -116 l38 -55 -61 67 c-34 37 -90 92 -124 122 -43 39 -55 53 -38 49 13
-3 52 -34 85 -67z m-1149 -298 c59 -159 112 -288 117 -288 6 0 8 6 5 13 -2 6
-18 55 -35 107 -17 53 -42 127 -56 164 -15 38 -25 71 -23 73 2 2 37 -67 78
-153 72 -150 75 -155 102 -151 15 2 32 -2 38 -10 9 -10 4 -16 -22 -28 -41 -18
-72 -37 -80 -48 -3 -5 -24 -8 -47 -9 -49 0 -90 21 -346 180 -99 62 -183 112
-186 112 -9 0 -64 -59 -59 -64 2 -2 78 -56 169 -121 90 -64 184 -134 208 -156
24 -21 58 -41 76 -44 24 -5 35 -15 48 -46 9 -21 13 -41 9 -43 -8 -5 -292 2
-336 8 -85 13 -151 18 -255 21 -89 3 -114 6 -112 17 7 32 67 187 87 228 46 90
179 275 277 381 65 71 213 168 229 151 4 -4 55 -136 114 -294z m1120 247 l67
-55 -32 -14 c-43 -18 -99 -4 -135 34 l-26 27 31 6 c26 6 30 10 26 32 -3 14 -3
25 -1 25 2 0 34 -25 70 -55z m-430 -11 c72 -32 155 -94 252 -188 l96 -92 -252
-139 c-215 -120 -249 -142 -235 -152 9 -7 21 -10 25 -7 5 3 9 1 9 -5 0 -22
-42 -23 -69 -2 -14 12 -46 36 -70 54 -24 18 -49 37 -57 42 -11 8 0 44 55 185
37 96 71 184 74 194 4 10 10 17 12 14 3 -3 -11 -52 -30 -109 -20 -57 -45 -133
-56 -168 -11 -35 -23 -70 -26 -77 -3 -8 1 -14 9 -14 9 0 22 20 31 48 21 65
143 413 152 434 5 13 12 15 23 9 10 -5 35 -17 57 -27z m-1464 -216 c-12 -18
-45 -70 -73 -116 -28 -45 -53 -80 -56 -77 -10 9 59 133 99 178 48 55 60 61 30
15z m2147 -28 c26 -41 28 -48 12 -40 -20 10 -50 59 -50 80 0 18 6 11 38 -40z
m-2115 -37 c-8 -21 -24 -55 -35 -76 -18 -37 -18 -41 -3 -88 18 -54 23 -54 79
-5 16 15 30 26 32 26 1 0 -12 -31 -28 -69 -22 -50 -38 -71 -53 -75 -14 -4 -29
-21 -39 -43 -10 -21 -23 -50 -31 -64 -8 -15 -17 -51 -21 -80 -4 -30 -13 -74
-20 -99 -19 -63 -18 -136 2 -144 9 -3 19 -4 24 -1 8 5 25 157 21 188 -3 23 27
124 39 132 5 3 7 -5 4 -17 -18 -91 -23 -240 -12 -340 5 -45 4 -61 -8 -73 -22
-22 -14 -66 15 -77 19 -6 22 -5 17 7 -15 39 10 3 89 -130 47 -80 106 -166 131
-192 25 -25 51 -58 59 -74 8 -15 25 -39 37 -52 25 -26 169 -122 234 -155 22
-11 68 -42 103 -68 l64 -48 -34 -11 c-31 -11 -34 -10 -39 9 -4 16 -15 22 -40
23 -163 12 -160 11 -216 69 -29 31 -60 54 -72 54 -15 0 -27 15 -47 57 -29 64
-38 73 -77 73 -17 0 -35 11 -52 31 -32 38 -33 53 -1 67 35 16 31 32 -8 30 -18
-1 -42 4 -54 10 -12 7 -33 12 -47 12 -50 0 -101 97 -147 278 -10 41 -10 60 -2
83 10 26 9 39 -8 80 -22 58 -24 99 -6 160 8 24 13 71 12 104 -1 44 4 66 17 84
19 25 24 61 8 61 -20 0 -60 -56 -61 -85 -1 -55 -10 -129 -15 -134 -9 -10 -1
123 11 175 6 28 22 68 35 88 21 35 21 38 5 56 -22 24 -10 64 44 147 34 53 98
133 107 133 1 0 -4 -17 -13 -37z m896 -80 c17 -31 29 -58 28 -60 -2 -1 -20 27
-40 62 -19 36 -32 63 -27 60 5 -3 22 -31 39 -62z m-1089 39 c0 -27 -78 -234
-84 -224 -5 9 -12 7 -24 -8 -9 -12 -34 -25 -55 -30 -36 -8 -38 -7 -34 11 8 31
-25 42 -69 24 -21 -8 -39 -13 -42 -10 -8 7 -6 8 113 66 61 29 112 54 115 56 3
3 -3 11 -13 18 -15 11 -31 9 -102 -10 -64 -18 -85 -21 -85 -11 0 7 21 21 48
31 41 16 105 43 192 82 31 14 40 15 40 5z m2063 -130 c78 -163 119 -290 125
-383 3 -50 1 -79 -7 -83 -6 -4 -55 5 -108 20 -54 14 -125 33 -158 41 -33 8
-70 17 -83 20 -40 10 -33 21 18 28 47 7 80 25 44 25 -13 0 -14 3 -4 15 36 43
-45 43 -132 -1 -38 -19 -60 -24 -92 -20 -22 3 -67 8 -99 12 -31 3 -60 10 -62
15 -14 22 11 63 60 99 28 21 58 45 66 52 53 53 352 278 368 278 4 0 32 -53 64
-118z m-429 -114 c-38 -29 -78 -61 -89 -71 -22 -21 -55 -40 -55 -33 0 8 191
156 202 156 6 0 -20 -23 -58 -52z m-765 -13 c61 -34 90 -45 108 -41 24 7 24 6
7 -19 -9 -14 -20 -24 -24 -23 -22 9 -189 124 -189 131 -1 5 2 6 7 4 4 -2 45
-26 91 -52z m294 6 c-9 -34 -36 -51 -66 -43 -27 7 -27 7 20 34 27 14 49 27 50
27 0 1 -1 -8 -4 -18z m188 -8 c77 -46 8 -60 -80 -17 -34 17 -48 29 -41 34 19
12 89 2 121 -17z m1097 -50 c5 -29 7 -53 3 -53 -3 1 -18 17 -34 37 -24 33 -26
38 -12 53 8 9 15 23 15 31 1 28 18 -14 28 -68z m-2572 -140 l-1 -148 -30 -1
c-16 -1 -36 1 -42 3 -18 7 -16 23 2 23 8 0 19 9 25 20 9 16 8 22 -4 26 -15 6
-73 -21 -246 -113 -56 -29 -121 -56 -155 -62 -33 -7 -70 -14 -83 -17 -13 -2
-32 -20 -43 -39 -22 -36 -36 -44 -97 -51 -20 -3 -59 -19 -87 -36 -73 -46 -135
-74 -179 -82 -21 -4 -63 -19 -93 -33 l-55 -26 -18 23 c-13 18 -23 21 -44 16
-14 -3 -35 -2 -45 4 -16 8 -27 2 -67 -40 -38 -40 -52 -48 -71 -44 -18 5 -31
-2 -56 -29 -17 -19 -42 -39 -54 -46 -34 -18 -110 -23 -132 -9 -17 10 -24 8
-48 -17 -15 -15 -73 -58 -128 -94 -76 -49 -112 -67 -150 -72 -41 -5 -108 -29
-159 -57 -5 -3 -7 -1 -3 4 3 5 40 27 82 49 79 40 99 60 74 75 -16 11 -32 2
-94 -49 -27 -22 -74 -54 -105 -70 -52 -28 -64 -30 -127 -27 -38 3 -89 0 -113
-5 -23 -5 -44 -8 -46 -6 -9 9 41 59 79 80 l42 22 -47 3 c-26 2 -62 -4 -83 -12
-52 -22 -85 -21 -85 3 0 30 130 88 360 159 214 67 287 85 355 87 39 2 88 11
110 20 22 10 54 20 70 22 88 14 50 47 -45 39 -33 -3 -95 -16 -137 -29 -87 -27
-156 -40 -148 -28 2 5 26 14 51 20 26 7 144 44 263 82 119 39 230 75 246 80
17 5 53 8 80 5 44 -3 76 5 140 34 170 78 389 166 550 222 110 38 274 100 365
137 137 57 166 73 170 92 3 14 16 26 30 30 14 4 26 7 26 8 1 1 1 -65 0 -146z
m1423 73 c37 -20 101 -94 102 -120 4 -50 -3 -84 -25 -126 -54 -103 -159 -139
-250 -86 -118 69 -150 151 -99 250 43 84 185 126 272 82z m-909 -89 c110 -24
196 -42 250 -51 46 -8 155 -37 200 -54 25 -9 52 -15 60 -13 14 3 30 19 30 32
0 3 -81 23 -180 44 -176 38 -228 57 -132 50 60 -5 133 -15 152 -20 8 -2 35 -6
60 -9 105 -14 107 -15 112 -70 3 -36 1 -40 -27 -48 -16 -4 -133 -87 -260 -184
-249 -190 -297 -221 -312 -201 -32 42 -88 196 -109 297 -26 126 -29 186 -13
242 9 36 11 37 32 24 12 -7 74 -25 137 -39z m-875 32 c-8 -12 -148 -79 -154
-73 -6 5 -7 4 74 46 75 39 90 44 80 27z m2105 -78 c30 -5 71 -12 90 -15 19 -4
58 -11 85 -16 28 -6 66 -12 85 -15 53 -7 82 -14 89 -20 5 -6 -119 5 -130 11
-3 2 -33 6 -65 10 -32 3 -61 7 -65 9 -6 4 -142 18 -176 19 -16 0 -23 6 -23 19
0 14 6 17 28 13 15 -3 52 -9 82 -15z m30 -77 c41 -3 82 -6 90 -6 82 1 430 -68
430 -86 0 -7 -9 -30 -20 -52 -11 -22 -20 -54 -20 -72 0 -18 -8 -49 -18 -68
-10 -19 -47 -89 -82 -155 -34 -66 -64 -121 -65 -123 -5 -6 -364 364 -395 406
-34 48 -87 77 -107 60 -9 -7 -10 -16 -3 -28 14 -26 14 -26 -32 -29 -24 -1 -47
-6 -52 -11 -4 -4 88 -80 207 -168 216 -161 241 -181 306 -238 l35 -32 -29 -34
c-46 -54 -145 -128 -226 -169 -79 -41 -133 -60 -251 -88 l-76 -18 14 23 c22
32 21 81 -1 274 -17 143 -23 355 -11 367 3 3 -4 19 -15 35 -12 16 -20 30 -18
31 70 45 100 68 129 101 81 91 89 97 112 92 13 -3 57 -8 98 -12z m-2665 -50
c-6 -2 -91 -28 -189 -58 -99 -31 -181 -54 -183 -52 -4 4 274 101 327 114 19 5
39 7 45 4 6 -4 6 -7 0 -8z m695 -24 c-11 -21 -47 -34 -77 -28 -13 3 -5 10 27
25 57 27 63 27 50 3z m1290 1 c0 -4 -42 -35 -92 -68 -213 -137 -259 -152 -65
-21 103 70 140 93 155 97 1 1 2 -3 2 -8z m-2555 -41 c20 -44 20 -44 -14 -55
-22 -7 -23 -5 -17 20 l7 27 -81 -7 c-44 -4 -80 -4 -80 -1 0 3 14 12 30 21 17
9 30 14 30 11 0 -2 19 2 43 9 61 19 62 19 82 -25z m2711 -68 c68 -34 82 -46
87 -69 2 -15 14 -71 25 -123 22 -101 25 -117 41 -220 14 -93 25 -241 22 -305
-1 -20 -4 -21 -88 -13 -94 9 -254 46 -316 72 -32 14 -37 20 -31 39 4 12 65
137 135 278 71 141 129 266 129 278 0 42 -28 20 -50 -39 -12 -33 -27 -63 -32
-66 -4 -3 1 18 12 48 23 61 25 84 8 95 -7 4 -13 17 -13 28 0 13 -7 20 -19 20
-13 0 -22 -12 -32 -45 -84 -276 -110 -352 -145 -432 -27 -61 -41 -106 -40
-131 1 -28 -2 -36 -12 -31 -60 35 -330 217 -360 244 -41 36 -71 85 -62 100 4
6 97 55 208 110 269 133 307 154 358 200 43 38 43 38 69 20 14 -9 62 -36 106
-58z m-1597 34 c-15 -14 -130 -66 -145 -65 -14 0 -15 2 -4 6 8 3 34 19 59 35
25 15 56 28 70 28 13 0 22 -2 20 -4z m1755 -81 c5 -38 14 -105 21 -170 3 -27
8 -67 11 -87 4 -24 2 -38 -5 -38 -6 0 -11 3 -11 8 0 4 -12 74 -27 155 -22 125
-24 150 -12 157 17 11 17 11 23 -25z m-2994 -43 c0 -9 -137 -52 -160 -51 -8 0
23 13 70 29 47 15 86 28 88 29 1 1 2 -3 2 -7z m1720 -19 c0 -5 11 -47 24 -95
13 -49 21 -88 17 -88 -5 0 -18 36 -30 80 -12 45 -24 87 -28 95 -3 8 0 15 6 15
6 0 11 -3 11 -7z m-1151 -137 c-10 -10 -139 -54 -139 -48 1 20 21 32 70 41 72
11 74 12 69 7z m3260 -69 c-36 -88 -78 -143 -131 -172 l-53 -28 42 46 c48 52
106 139 131 195 15 34 16 35 20 14 2 -13 -2 -38 -9 -55z m-4368 24 c-6 -10
-23 -23 -38 -29 -238 -92 -340 -135 -359 -153 -18 -17 -29 -19 -68 -14 -25 4
-46 11 -46 15 0 10 123 61 289 120 75 26 152 55 171 64 49 21 63 21 51 -3z
m2667 -343 c6 -17 10 -33 8 -35 -1 -2 -17 13 -35 32 -31 34 -31 35 -8 35 16 0
26 -9 35 -32z m1692 11 c0 -15 -56 -69 -71 -69 -7 0 5 18 27 40 43 44 44 44
44 29z m-986 -153 c51 -8 56 -13 20 -21 -16 -3 -37 -10 -46 -16 -13 -6 -20 -4
-28 11 -10 19 -37 18 -52 -3 -4 -7 -17 -6 -37 3 -36 15 -43 23 -36 42 5 13 16
13 73 2 37 -7 85 -15 106 -18z m835 -12 c11 -10 -11 -15 -50 -12 -42 4 -43 4
-19 15 22 10 56 8 69 -3z m-978 -110 c12 -15 12 -16 -6 -11 -11 3 -41 11 -67
18 -55 13 -60 23 -20 37 28 10 61 -6 93 -44z m-231 24 c16 -12 54 -25 85 -29
30 -4 75 -15 100 -25 39 -14 44 -20 39 -38 -4 -12 -7 -22 -8 -23 -4 -5 -106
21 -106 28 0 4 6 14 13 21 11 11 2 13 -57 13 -89 1 -142 24 -126 55 14 25 24
25 60 -2z m997 -16 c11 -7 4 -12 -32 -21 -57 -14 -157 -12 -152 3 9 29 141 41
184 18z"/>
<path d="M8370 6405 c-23 -25 -23 -25 -4 -40 25 -19 34 -19 35 3 0 9 2 27 3
40 3 29 -5 28 -34 -3z"/>
<path d="M8930 5491 c0 -26 15 -34 47 -26 l27 6 -30 20 c-37 24 -44 24 -44 0z"/>
<path d="M8681 4739 c-17 -7 -21 -13 -14 -20 13 -13 65 -1 60 14 -5 15 -18 17
-46 6z"/>
<path d="M7865 6398 c-11 -6 -37 -27 -58 -46 -34 -33 -40 -35 -66 -26 -36 14
-58 3 -66 -35 -5 -22 -17 -34 -53 -50 -45 -19 -46 -20 -17 -22 138 -6 295 16
295 40 0 16 -25 29 -58 33 l-34 3 41 30 c45 34 51 43 42 67 -5 13 -10 15 -26
6z"/>
<path d="M7174 6199 c-23 -8 -42 -29 -27 -29 5 0 18 -7 29 -16 10 -8 15 -13 9
-11 -5 3 -20 1 -33 -4 -21 -8 -22 -10 -8 -24 15 -16 89 -27 114 -18 6 3 12 11
12 19 0 20 37 40 100 55 53 12 54 13 25 21 -43 11 -196 17 -221 7z"/>
<path d="M6982 5771 c-30 -10 -61 -26 -70 -35 -15 -15 -14 -16 11 -16 20 0 27
-5 27 -20 0 -24 -2 -24 46 -6 89 32 176 79 162 87 -23 15 -121 9 -176 -10z"/>
<path d="M8126 6181 c-3 -4 -1 -13 4 -21 6 -10 2 -22 -13 -39 l-22 -23 55 4
c47 4 60 10 92 41 l36 37 -46 1 c-26 1 -59 3 -74 5 -15 1 -30 -1 -32 -5z"/>
<path d="M8367 6084 c-1 -2 -19 -4 -38 -5 -51 -2 -147 -30 -160 -45 -16 -19 1
-18 89 6 83 23 82 23 82 11 0 -5 -25 -19 -56 -31 -81 -30 -142 -58 -149 -69
-6 -11 23 -22 45 -17 48 10 70 20 70 31 0 7 17 20 38 28 124 51 154 68 143 81
-10 12 -55 19 -64 10z"/>
<path d="M6762 5039 c-5 -13 -8 -37 -7 -54 1 -16 3 -40 3 -53 2 -26 30 -41 42
-22 4 7 4 27 -1 44 -4 17 -10 46 -13 64 -6 44 -13 50 -24 21z"/>
<path d="M8528 5772 c-35 -4 -36 -15 -3 -30 39 -18 61 -15 92 12 l28 25 -45
-2 c-25 -1 -57 -3 -72 -5z"/>
<path d="M8558 5539 l-23 -6 25 -10 c17 -7 34 -6 55 2 16 7 37 15 45 18 20 8
-72 4 -102 -4z"/>
<path d="M6113 5443 c-61 -24 -84 -53 -43 -53 32 0 150 52 150 67 0 20 -38 15
-107 -14z"/>
<path d="M5930 5426 c-14 -8 -49 -30 -77 -49 l-52 -35 28 -12 c24 -10 37 -8
79 10 50 22 88 53 94 79 4 19 -41 23 -72 7z"/>
<path d="M5488 5233 c-61 -26 -87 -70 -58 -99 14 -14 119 -1 131 17 20 31 8
36 -50 19 -51 -14 -51 -3 -2 39 46 39 38 49 -21 24z"/>
<path d="M4277 4826 c-19 -13 -44 -27 -56 -31 -25 -8 -39 -51 -22 -68 7 -7 33
-12 59 -12 55 0 187 60 187 85 0 23 -31 23 -64 -1 -16 -12 -49 -23 -73 -25
l-43 -5 34 16 c36 16 63 44 55 57 -9 15 -41 8 -77 -16z"/>
<path d="M7778 5583 c-29 -7 -20 -21 12 -18 46 4 106 -30 125 -72 l17 -35 -30
-31 c-19 -19 -36 -28 -46 -24 -15 6 -15 10 -1 43 20 49 20 49 -19 68 -46 22
-82 20 -106 -4 -34 -34 -26 -67 25 -98 l46 -27 -6 -46 c-5 -36 -3 -48 9 -52
17 -7 32 9 38 38 2 14 10 19 25 17 16 -2 32 11 62 51 23 30 41 64 41 75 0 13
-21 44 -48 72 -43 44 -53 50 -88 49 -21 -1 -47 -3 -56 -6z"/>
<path d="M7659 5550 c-20 -11 -39 -25 -42 -32 -2 -8 9 -50 25 -95 22 -60 35
-84 51 -90 32 -10 40 -10 61 0 17 8 12 13 -34 32 -47 20 -51 23 -31 30 18 5
20 9 10 21 -19 24 -19 65 2 105 10 21 19 41 19 44 0 10 -25 4 -61 -15z"/>
<path d="M6981 5416 c-58 -12 -78 -33 -42 -43 l22 -6 -21 -19 c-46 -43 -8 -50
104 -18 70 19 131 27 214 29 23 1 42 6 42 11 0 10 -72 8 -180 -6 -25 -3 -63
-7 -85 -9 -38 -3 -39 -3 -16 9 l24 13 -29 8 -29 9 34 5 c19 3 36 12 39 19 4
14 -2 14 -77 -2z"/>
<path d="M7135 5319 c-38 -11 -76 -21 -83 -23 -14 -2 -32 -25 -32 -38 0 -17
42 -6 106 27 37 19 73 35 80 35 7 0 16 5 19 10 9 14 -9 12 -90 -11z"/>
<path d="M8251 5338 c11 -40 24 -48 63 -37 17 5 32 9 34 9 2 0 0 5 -3 10 -4 6
-14 8 -23 6 -20 -7 -36 3 -45 27 -3 9 -13 17 -21 17 -12 0 -13 -6 -5 -32z"/>
<path d="M8380 5310 c-8 -11 -27 -21 -42 -24 -14 -2 -36 -10 -48 -16 -20 -11
-20 -13 -6 -29 11 -12 28 -17 52 -16 35 3 62 15 31 15 -9 0 -18 4 -22 9 -3 5
29 20 72 34 94 29 106 47 31 47 -40 -1 -57 -5 -68 -20z"/>
<path d="M8460 5172 c40 -31 50 -34 72 -18 14 10 7 15 -45 29 l-62 16 35 -27z"/>
<path d="M8048 5104 c-35 -18 -39 -49 -5 -40 12 3 28 6 35 6 6 0 12 11 12 25
0 29 -5 30 -42 9z"/>
<path d="M8485 5090 c-10 -11 -14 -20 -9 -21 49 -4 84 -3 84 2 0 9 -35 39 -47
39 -5 0 -18 -9 -28 -20z"/>
<path d="M8016 4968 c-21 -29 -10 -41 29 -34 28 6 33 3 38 -15 6 -21 6 -21 59
9 71 41 76 64 12 57 -26 -3 -55 -7 -65 -10 -9 -3 -20 -1 -24 5 -10 17 -33 11
-49 -12z"/>
<path d="M8013 4753 c-13 -2 -23 -11 -23 -19 0 -17 61 -19 91 -3 41 21 -1 35
-68 22z"/>
<path d="M7416 5097 c-24 -7 -40 -19 -42 -30 -1 -9 -1 -17 0 -17 22 0 96 36
96 46 0 16 -2 16 -54 1z"/>
<path d="M7245 5042 c-26 -5 -31 -11 -39 -45 -6 -26 -5 -27 29 -25 19 2 33 8
31 13 -2 6 2 19 10 30 23 31 17 37 -31 27z"/>
<path d="M7597 4779 c-13 -8 -16 -20 -13 -56 3 -25 6 -47 8 -49 9 -9 98 -12
103 -4 3 5 -7 16 -22 24 l-28 14 28 11 c80 31 106 47 97 60 -6 10 -18 12 -46
7 -49 -10 -75 -10 -94 -3 -8 4 -23 2 -33 -4z"/>
<path d="M13135 6760 c-5 -14 -9 -27 -10 -30 -1 -8 -66 -211 -88 -275 -11 -33
-24 -65 -28 -70 -5 -7 -83 -10 -213 -9 -113 1 -206 1 -206 -1 0 -2 69 -53 153
-113 83 -61 160 -117 170 -124 17 -13 15 -24 -47 -211 -36 -109 -66 -200 -66
-203 0 -6 57 33 77 52 6 6 46 35 88 65 42 30 99 71 127 91 l51 37 44 -32 c25
-18 55 -39 67 -47 11 -8 68 -50 125 -92 57 -43 105 -77 106 -76 1 2 -26 89
-61 193 -35 105 -64 195 -64 202 0 6 68 60 151 120 83 59 160 115 172 124 20
16 8 17 -183 15 -113 -1 -210 0 -217 2 -6 2 -26 49 -43 105 -95 299 -96 304
-105 277z"/>
<path d="M1000 6739 c0 -7 -28 -97 -61 -200 -58 -175 -63 -187 -88 -191 -14
-2 -110 -3 -213 -2 -104 1 -188 0 -188 -2 0 -2 66 -51 148 -109 81 -58 158
-114 171 -124 l24 -18 -66 -199 c-36 -109 -65 -200 -63 -201 1 -1 52 34 114
80 61 45 138 101 171 124 l60 42 168 -121 c92 -66 172 -126 176 -132 5 -6 6
-3 2 9 -14 40 -77 232 -104 316 l-28 85 174 124 c95 68 173 125 173 126 0 1
-97 1 -215 0 l-214 -1 -61 185 c-33 102 -60 190 -60 197 0 6 -4 15 -10 18 -5
3 -10 1 -10 -6z"/>
<path d="M6425 4710 c-89 -5 -120 -13 -110 -30 5 -8 69 -6 188 3 41 4 46 -2
19 -26 -14 -13 -42 -17 -115 -19 -60 -2 -101 -8 -109 -15 -10 -10 9 -13 93
-14 115 -1 129 -2 156 -18 14 -8 -6 -11 -82 -11 -83 -1 -97 -3 -80 -13 29 -17
336 -8 343 11 6 20 -26 30 -109 33 -69 4 -70 15 -2 30 32 7 62 15 66 19 13 11
-75 48 -124 52 -24 2 -84 1 -134 -2z"/>
<path d="M6074 4700 c-69 -6 -104 -28 -104 -66 0 -30 25 -44 64 -33 69 19 99
20 122 4 22 -14 54 -11 54 5 0 5 -16 14 -35 20 -38 13 -47 30 -15 30 13 0 20
7 20 20 0 11 -3 20 -7 21 -5 0 -15 1 -23 3 -8 1 -43 -1 -76 -4z"/>
<path d="M5378 4650 c-38 -20 -46 -34 -29 -45 12 -7 106 37 106 50 0 18 -39
15 -77 -5z"/>
<path d="M4970 4603 c0 -7 3 -13 8 -14 4 0 16 -2 27 -5 28 -5 46 3 40 18 -7
18 -75 19 -75 1z"/>
<path d="M3593 4592 c-16 -16 -15 -17 16 -20 41 -4 68 5 54 19 -17 17 -52 18
-70 1z"/>
<path d="M5205 4572 c-19 -8 -35 -21 -35 -29 0 -24 123 -5 133 21 8 20 -55 25
-98 8z"/>
<path d="M3745 4532 c-102 -31 -115 -37 -115 -59 0 -13 16 -14 123 -9 67 4
131 9 142 11 11 2 31 4 45 4 22 1 23 3 9 16 -9 9 -24 16 -35 17 -21 1 -107
-10 -141 -19 -13 -3 -23 -3 -23 1 0 5 32 14 102 30 19 4 26 11 22 21 -8 20
-23 18 -129 -13z"/>
<path d="M4725 4470 c-43 -8 -37 -24 12 -31 23 -3 48 -11 57 -18 14 -12 52
-14 136 -8 36 3 39 35 3 42 -15 4 -39 11 -53 16 -26 9 -102 9 -155 -1z"/>
<path d="M5077 4419 c-62 -10 -66 -29 -6 -31 56 -2 74 1 94 16 17 12 16 14
-16 17 -19 3 -51 2 -72 -2z"/>
<path d="M4568 4415 c-2 -1 -23 -6 -47 -9 -54 -7 -59 -11 -43 -36 10 -17 7
-22 -28 -41 -39 -22 -53 -48 -27 -50 115 -6 397 -5 397 2 0 5 -19 9 -42 10
-24 0 -52 2 -63 4 -29 5 -126 14 -157 15 -45 0 -32 14 37 40 60 22 79 40 56
54 -10 6 -78 16 -83 11z"/>
<path d="M4248 4372 c-32 -8 -58 -18 -58 -22 0 -17 38 -20 72 -6 50 21 86 26
113 16 17 -6 27 -5 35 5 24 29 -59 32 -162 7z"/>
<path d="M4890 4372 c-27 -11 -46 -25 -48 -36 -3 -16 1 -17 30 -11 56 12 98
33 98 49 0 20 -23 19 -80 -2z"/>
<path d="M3503 4337 c-43 -10 -59 -27 -25 -27 43 0 171 24 166 32 -7 11 -88 8
-141 -5z"/>
<path d="M3938 4345 c-1 -2 -23 -6 -48 -10 -25 -3 -67 -13 -94 -22 -41 -13
-54 -13 -87 -3 -32 11 -44 11 -64 0 -21 -11 -23 -16 -12 -27 13 -13 109 -19
153 -9 12 2 45 7 74 11 90 11 140 24 140 35 0 8 -56 31 -62 25z"/>
<path d="M8634 4342 c-40 -7 -47 -11 -35 -26 12 -14 62 -13 113 4 32 10 64 6
84 -11 11 -9 14 -8 14 4 0 9 -6 19 -12 24 -13 7 -126 11 -164 5z"/>
<path d="M9220 4308 c-30 -4 -75 -10 -100 -13 -25 -3 -56 -7 -70 -10 -14 -3
-45 -8 -70 -11 -25 -3 -54 -14 -65 -24 -16 -14 -44 -19 -135 -24 -149 -8 -200
-14 -227 -28 -32 -16 -29 -29 5 -24 15 3 56 7 92 11 36 3 81 8 100 10 19 3 55
7 80 10 25 4 62 11 84 16 34 9 41 8 58 -11 11 -12 26 -19 33 -16 25 9 150 45
175 50 85 16 130 29 140 41 21 26 -19 35 -100 23z"/>
<path d="M4258 4284 c-17 -13 -41 -24 -53 -24 -21 0 -45 -17 -45 -32 0 -4 9
-8 20 -8 10 0 31 -5 44 -12 22 -9 29 -8 47 8 11 10 35 23 52 29 44 14 44 47 0
56 -25 5 -40 1 -65 -17z"/>
<path d="M6800 4296 c-68 -12 -90 -21 -90 -37 0 -16 60 -36 99 -34 20 1 46 3
59 4 39 2 16 17 -30 20 -24 1 -47 6 -52 12 -10 9 -7 10 232 11 73 0 135 4 138
9 3 5 -26 8 -65 8 -38 -1 -75 2 -82 6 -19 12 -138 13 -209 1z"/>
<path d="M4949 4266 c-2 -2 -35 -7 -74 -10 -38 -4 -81 -9 -95 -11 -14 -2 -45
-6 -70 -10 -103 -13 -240 -40 -240 -47 0 -11 8 -10 145 7 66 8 140 17 165 20
59 7 127 15 169 21 18 2 40 -1 47 -7 14 -11 49 -4 72 14 11 8 11 12 0 18 -13
9 -111 13 -119 5z"/>
<path d="M7010 4244 c-24 -14 -23 -15 23 -9 38 5 53 3 67 -10 13 -12 23 -14
35 -7 16 8 15 11 -6 26 -29 20 -86 20 -119 0z"/>
<path d="M4351 4191 c-27 -15 -30 -19 -16 -24 25 -10 32 -9 49 9 17 16 21 34
9 34 -5 -1 -23 -9 -42 -19z"/>
<path d="M9102 4175 c-52 -32 -46 -52 7 -24 26 13 49 18 71 14 46 -8 120 -9
127 -1 16 15 -21 29 -89 33 -65 4 -78 1 -116 -22z"/>
<path d="M6452 4168 c-17 -17 -15 -26 6 -37 14 -7 27 -4 53 11 l34 22 -25 7
c-38 11 -55 10 -68 -3z"/>
<path d="M8820 4117 c-57 -11 -71 -24 -37 -33 33 -8 117 2 131 16 23 23 -24
32 -94 17z"/>
<path d="M8490 4073 c-63 -11 -100 -25 -100 -38 0 -10 9 -13 33 -10 81 9 174
18 195 18 26 1 29 13 5 21 -28 9 -105 14 -133 9z"/>
<path d="M6627 4063 c-2 -1 -38 -3 -80 -4 -79 -2 -101 -11 -70 -27 15 -8 120
-8 150 0 4 1 18 -2 31 -6 30 -10 58 10 41 30 -9 12 -63 17 -72 7z"/>
<path d="M7047 4032 c-20 -8 -37 -18 -37 -23 0 -5 39 -9 86 -9 79 0 84 1 69
16 -26 26 -77 33 -118 16z"/>
<path d="M7571 4024 c-30 -8 -57 -17 -60 -19 -2 -3 44 -5 103 -5 95 0 107 2
102 16 -3 9 -6 18 -6 20 0 9 -89 2 -139 -12z"/>
<path d="M8083 4019 l-38 -17 85 -1 c47 -1 103 4 125 10 39 11 39 12 15 21
-38 14 -145 7 -187 -13z"/>
<path d="M4442 3118 c-123 -19 -224 -107 -266 -233 -53 -155 -36 -366 38 -484
36 -56 111 -118 168 -137 53 -17 157 -22 222 -11 127 23 232 141 265 297 15
70 12 220 -5 287 -28 109 -96 208 -170 246 -68 35 -167 49 -252 35z m161 -161
c120 -91 137 -391 29 -519 -62 -74 -171 -76 -236 -4 -69 77 -95 259 -56 386
22 72 68 135 114 156 44 20 109 12 149 -19z"/>
<path d="M6050 3119 c-176 -26 -269 -156 -223 -312 20 -70 71 -114 212 -185
129 -65 160 -91 161 -132 0 -50 -12 -69 -57 -91 -37 -18 -56 -21 -110 -16 -36
2 -69 9 -75 15 -5 5 -12 36 -15 68 -3 33 -8 62 -11 65 -4 4 -28 9 -54 12 -40
5 -48 3 -49 -11 0 -9 -2 -26 -5 -37 -2 -11 -6 -54 -9 -95 -4 -41 -8 -80 -10
-86 -9 -28 169 -72 275 -68 187 6 294 100 294 259 0 118 -41 165 -230 261
-119 60 -154 90 -154 133 0 60 68 98 155 87 22 -2 44 -5 48 -5 4 -1 21 -30 37
-66 16 -36 34 -65 40 -66 5 0 24 -1 40 -1 65 0 61 -5 54 85 -4 45 -8 93 -9
107 -2 14 -3 30 -4 37 -2 28 -204 56 -301 42z"/>
<path d="M7535 3115 c-84 -16 -128 -40 -179 -96 -82 -91 -115 -202 -110 -366
4 -99 27 -187 69 -252 34 -55 113 -118 170 -138 58 -19 181 -22 240 -5 118 33
202 132 243 282 12 43 9 249 -3 297 -58 216 -216 318 -430 278z m163 -154
c121 -85 144 -369 42 -510 -50 -69 -124 -90 -193 -55 -43 23 -65 49 -95 114
-34 75 -40 227 -12 315 22 68 69 131 114 151 41 19 107 12 144 -15z"/>
<path d="M3271 3060 c2 -60 2 -60 33 -61 17 -1 34 -1 39 0 4 1 6 -140 5 -311
-2 -242 -6 -313 -15 -314 -7 -1 -25 -2 -39 -3 -25 -1 -26 -2 -19 -47 11 -79 1
-74 171 -74 l154 0 0 48 c0 53 -12 72 -46 72 -13 0 -26 5 -29 11 -6 8 -9 177
-6 237 1 9 36 12 141 12 l140 0 0 -125 0 -124 -32 -9 c-35 -9 -37 -17 -27 -94
l3 -28 158 0 158 0 0 55 c0 59 5 54 -75 70 -20 4 -20 11 -17 308 l3 304 40 6
c22 3 43 8 46 10 2 3 1 29 -4 59 l-8 53 -158 3 -157 3 0 -60 0 -60 33 -3 32
-3 3 -115 3 -115 -135 0 c-74 0 -138 3 -141 7 -6 6 -10 152 -6 204 1 6 19 14
41 18 l41 6 -7 43 c-3 23 -7 49 -8 57 -2 12 -29 15 -160 18 l-157 3 2 -61z"/>
<path d="M4946 3073 c1 -27 2 -54 3 -60 0 -8 15 -13 35 -13 19 0 37 -4 40 -9
3 -4 6 -121 6 -260 1 -182 5 -265 15 -298 40 -133 150 -194 337 -187 137 5
231 79 265 208 3 12 7 131 9 266 1 135 3 250 3 257 1 7 16 15 35 18 30 6 34
11 38 43 8 86 14 82 -147 82 l-143 0 1 -57 2 -57 35 -4 c19 -2 37 -5 39 -7 9
-10 3 -474 -8 -511 -17 -64 -71 -104 -139 -104 -97 0 -143 28 -162 101 -7 26
-12 122 -12 239 0 292 -2 275 25 278 63 6 62 6 65 65 l3 57 -173 0 -173 0 1
-47z"/>
<path d="M6462 3113 c2 -8 -9 -137 -18 -215 l-4 -38 50 0 51 0 26 60 c14 33
28 61 32 61 31 7 131 2 132 -6 1 -5 2 -142 3 -303 l1 -292 -35 -6 c-19 -3 -52
-10 -74 -16 -36 -9 -38 -11 -32 -40 3 -17 6 -39 6 -49 0 -18 12 -19 218 -19
l218 0 2 33 c1 17 5 40 8 49 5 18 0 21 -89 38 l-57 11 2 302 3 302 63 0 c35 0
66 -2 71 -5 4 -3 18 -31 32 -62 l24 -58 52 0 c38 0 51 4 48 13 -2 6 -7 38 -9
71 -3 32 -8 85 -12 117 l-7 59 -353 0 c-195 0 -353 -3 -352 -7z"/>
<path d="M8071 3060 c2 -63 1 -62 57 -63 18 0 22 -6 23 -31 0 -17 1 -155 1
-306 l0 -275 -42 -14 -42 -14 6 -44 c3 -25 8 -49 12 -54 3 -5 63 -9 135 -9
l129 0 0 59 c0 58 0 59 -32 65 l-33 6 2 271 c1 149 4 273 5 275 2 2 25 -52 50
-119 139 -362 190 -495 203 -524 l15 -33 128 0 127 0 0 358 c-1 196 0 362 2
368 3 7 22 15 44 18 40 6 40 7 34 44 -15 91 1 82 -150 82 -121 0 -135 -2 -136
-17 -2 -27 1 -96 4 -100 2 -1 17 -3 35 -5 l32 -2 0 -306 -1 -305 -141 368
-141 367 -164 0 -163 0 1 -60z"/>
<path d="M9563 3108 c-1 -24 -14 -173 -19 -210 l-5 -38 51 0 51 0 26 58 c14
31 29 60 35 63 7 5 102 5 128 0 3 -1 5 -136 5 -301 l0 -300 -35 -6 c-19 -3
-52 -10 -73 -15 -34 -9 -37 -13 -33 -37 2 -15 5 -37 5 -49 l1 -23 218 0 218 0
3 42 c1 23 4 45 7 49 5 9 -9 13 -88 29 l-58 11 0 302 0 303 68 -2 c37 -1 69
-2 72 -3 3 -1 16 -28 30 -61 l25 -60 53 0 c29 0 51 4 48 8 -3 5 -7 39 -10 78
-4 38 -8 78 -10 89 -3 11 -5 35 -5 53 l-1 32 -353 0 c-276 0 -354 -3 -354 -12z"/>
<path d="M10340 3064 c0 -51 2 -56 28 -65 21 -7 47 -44 119 -171 l92 -161 -96
-156 c-53 -86 -97 -157 -98 -158 -1 -2 -11 -4 -23 -6 -31 -5 -36 -13 -38 -58
l-1 -39 144 0 143 0 0 44 c0 42 -1 44 -34 50 l-35 7 22 33 c13 18 36 58 52 89
17 31 33 57 37 57 3 0 29 -39 57 -87 42 -72 48 -89 36 -96 -8 -4 -19 -6 -24
-2 -14 8 -25 -16 -27 -57 l-1 -38 173 0 173 0 -1 39 c0 49 -5 55 -48 70 -31
10 -45 29 -123 162 l-88 150 104 162 c85 132 109 163 130 165 24 3 25 6 24 60
l-2 57 -140 0 -139 0 -1 -48 c-1 -45 1 -49 27 -54 16 -3 31 -10 34 -14 6 -11
-104 -189 -117 -189 -5 0 -9 4 -9 10 0 5 -22 48 -49 95 l-49 85 44 11 c24 6
44 13 44 16 0 2 -5 24 -11 49 l-11 44 -159 0 -159 0 0 -56z"/>
<path d="M9129 2416 c-4 -5 -76 -14 -117 -15 -20 -1 -23 -5 -18 -28 6 -27 10
-44 22 -109 4 -22 -3 -49 -25 -97 -17 -37 -31 -72 -31 -78 0 -5 24 -21 53 -33
62 -28 67 -26 108 56 32 64 56 155 53 206 -1 17 -2 48 -3 67 -1 27 -5 35 -19
35 -10 0 -21 -2 -23 -4z"/>
</g>
</svg>
